<?xml version="1.0" standalone="no"?>
<!DOCTYPE svg PUBLIC "-//W3C//DTD SVG 20010904//EN"
 "http://www.w3.org/TR/2001/REC-SVG-20010904/DTD/svg10.dtd">
<svg version="1.0" xmlns="http://www.w3.org/2000/svg"
 width="201.000000pt" height="201.000000pt" viewBox="0 0 201.000000 201.000000"
 preserveAspectRatio="xMidYMid meet">
<metadata>
Created by potrace 1.14, written by Peter Selinger 2001-2017
</metadata>
<g transform="translate(0.000000,201.000000) scale(0.100000,-0.100000)"
fill="#000000" stroke="none">
<path d="M862 1714 c-304 -67 -544 -305 -615 -612 -29 -125 -18 -303 27 -437
66 -195 218 -365 410 -458 110 -53 224 -76 361 -73 129 4 147 7 239 37 438
146 660 643 479 1074 -99 236 -322 418 -575 469 -93 19 -240 19 -326 0z m304
-346 l32 -13 -84 -85 -85 -84 -84 84 c-46 46 -82 86 -80 88 31 31 238 38 301
10z m-252 -152 l114 -114 114 114 113 114 27 -18 27 -18 -140 -139 -139 -140
-140 140 -140 140 22 17 c13 10 24 18 26 18 1 0 53 -51 116 -114z m-46 -126
l160 -161 160 161 c149 150 162 160 181 148 12 -7 21 -17 21 -23 0 -5 -62 -72
-137 -147 l-138 -138 140 -140 140 -140 -22 -22 -22 -22 -157 157 c-86 86
-161 157 -166 157 -6 0 -81 -70 -166 -155 -85 -86 -160 -154 -165 -152 -6 2
-15 11 -21 20 -9 14 12 40 129 157 l140 140 -138 138 c-75 75 -137 142 -137
148 0 11 20 34 31 34 3 0 79 -72 167 -160z m-120 -50 c56 -56 102 -105 102
-108 0 -9 -213 -222 -221 -222 -4 0 -17 24 -30 53 -21 45 -24 68 -24 162 0 93
4 119 25 172 16 41 28 59 35 53 6 -5 56 -54 113 -110z m705 68 c48 -130 48
-226 0 -355 -9 -24 -20 -43 -24 -43 -5 0 -58 50 -119 110 l-110 110 109 110
c60 61 114 110 119 110 5 0 16 -19 25 -42z m-280 -406 l137 -138 -28 -16 -28
-17 -113 114 -113 114 -114 -114 -115 -115 -25 17 -25 16 138 139 c76 76 140
138 143 138 3 0 67 -62 143 -138z m-58 -112 c48 -48 75 -83 70 -89 -34 -30
-209 -39 -282 -14 l-45 16 83 83 c46 46 86 84 89 84 3 0 41 -36 85 -80z"/>
</g>
</svg>
